{"asset":{"version":"2.0","generator":"babylon.js glTF exporter for 3dsmax 2022 v20221031.2"},"scene":0,"scenes":[{"nodes":[0]}],"nodes":[{"children":[1],"mesh":0,"translation":[-7.33807546E-12,0.0,9.536735E-07],"rotation":[0.0,1.8189894E-12,4.6566126E-10,1.0],"scale":[1.0,0.99999994,1.0],"name":"A_Turbine_Tower_001"},{"children":[2],"mesh":1,"translation":[7.73816566E-10,-5.81611368E-26,-8.065624E-07],"rotation":[-2.84217128E-14,-3.33056065E-15,4.656612E-10,1.0],"scale":[0.99999994,1.00000012,1.0],"name":"B_Turbine_Hub_001"},{"mesh":2,"translation":[1.89328057E-05,215.582428,9.762961],"rotation":[-0.0366437174,8.736407E-08,3.20349547E-09,0.9993284],"scale":[1.0,0.99999994,0.99999994],"name":"C_Turbine_Rotor_001"}],"meshes":[{"primitives":[{"attributes":{"POSITION":1,"NORMAL":2,"TEXCOORD_0":3},"indices":0,"material":0}],"name":"A_Turbine_Tower_001"},{"primitives":[{"attributes":{"POSITION":5,"NORMAL":6,"TEXCOORD_0":7},"indices":4,"material":0}],"name":"B_Turbine_Hub_001"},{"primitives":[{"attributes":{"POSITION":9,"NORMAL":10,"TEXCOORD_0":11},"indices":8,"material":0}],"name":"C_Turbine_Rotor_001"}],"accessors":[{"bufferView":0,"componentType":5123,"count":2223,"type":"SCALAR","name":"accessorIndices"},{"bufferView":1,"componentType":5126,"count":1022,"max":[7.9339757,209.918884,7.92603874],"min":[-13.5488949,-0.000102043152,-13.1470442],"type":"VEC3","name":"accessorPositions"},{"bufferView":1,"byteOffset":12264,"componentType":5126,"count":1022,"type":"VEC3","name":"accessorNormals"},{"bufferView":2,"componentType":5126,"count":1022,"type":"VEC2","name":"accessorUVs"},{"bufferView":0,"byteOffset":4448,"componentType":5123,"count":5547,"type":"SCALAR","name":"accessorIndices"},{"bufferView":1,"byteOffset":24528,"componentType":5126,"count":1310,"max":[5.28905535,221.748688,3.50443268],"min":[-5.34083176,209.836823,-10.602787],"type":"VEC3","name":"accessorPositions"},{"bufferView":1,"byteOffset":40248,"componentType":5126,"count":1310,"type":"VEC3","name":"accessorNormals"},{"bufferView":2,"byteOffset":8176,"componentType":5126,"count":1310,"type":"VEC2","name":"accessorUVs"},{"bufferView":0,"byteOffset":15544,"componentType":5123,"count":17541,"type":"SCALAR","name":"accessorIndices"},{"bufferView":1,"byteOffset":55968,"componentType":5126,"count":3520,"max":[165.99823,184.470016,13.1081657],"min":[-153.656174,-102.915756,-6.7330575],"type":"VEC3","name":"accessorPositions"},{"bufferView":1,"byteOffset":98208,"componentType":5126,"count":3520,"type":"VEC3","name":"accessorNormals"},{"bufferView":2,"byteOffset":18656,"componentType":5126,"count":3520,"type":"VEC2","name":"accessorUVs"}],"bufferViews":[{"buffer":0,"byteLength":50628,"name":"bufferViewScalar"},{"buffer":0,"byteOffset":50628,"byteLength":140448,"byteStride":12,"name":"bufferViewFloatVec3"},{"buffer":0,"byteOffset":191076,"byteLength":46816,"byteStride":8,"name":"bufferViewFloatVec2"}],"buffers":[{"uri":"Turbine-1312ft.bin","byteLength":237892}],"materials":[{"pbrMetallicRoughness":{"baseColorTexture":{"index":0},"metallicFactor":0.0,"roughnessFactor":0.235631764},"name":"Turbine-Mat"}],"textures":[{"sampler":0,"source":0,"name":"turbine-map.jpg"}],"images":[{"uri":"Textures/turbine-map.jpg"}],"samplers":[{"magFilter":9729,"minFilter":9987}]}