{"asset":{"version":"2.0","generator":"babylon.js glTF exporter for 3dsmax 2022 v20221031.2"},"scene":0,"scenes":[{"nodes":[0]}],"nodes":[{"children":[1],"mesh":0,"translation":[-7.33807546E-12,0.0,9.536735E-07],"rotation":[0.0,1.8189894E-12,4.6566126E-10,1.0],"scale":[1.0,0.99999994,1.0],"name":"A_Turbine_Tower_001"},{"children":[2],"mesh":1,"translation":[1.52587891E-05,-0.001953125,-1.71661377E-05],"rotation":[-2.14384124E-14,-8.74227837E-08,4.656612E-10,1.0],"scale":[0.99999994,1.00000012,1.0],"name":"B_Turbine_Hub_001"},{"mesh":2,"translation":[2.036033E-05,150.6582,9.798734],"rotation":[-0.0366436951,1.61209513E-07,4.9652062E-08,0.9993284],"scale":[1.00000012,0.99999994,0.99999994],"name":"C_Turbine_Rotor_001"}],"meshes":[{"primitives":[{"attributes":{"POSITION":1,"NORMAL":2,"TEXCOORD_0":3},"indices":0,"material":0}],"name":"A_Turbine_Tower_001"},{"primitives":[{"attributes":{"POSITION":5,"NORMAL":6,"TEXCOORD_0":7},"indices":4,"material":0}],"name":"B_Turbine_Hub_001"},{"primitives":[{"attributes":{"POSITION":9,"NORMAL":10,"TEXCOORD_0":11},"indices":8,"material":0}],"name":"C_Turbine_Rotor_001"}],"accessors":[{"bufferView":0,"componentType":5123,"count":2223,"type":"SCALAR","name":"accessorIndices"},{"bufferView":1,"componentType":5126,"count":1022,"max":[7.9339757,145.184464,7.92603874],"min":[-13.5488949,-0.000102043152,-13.1470442],"type":"VEC3","name":"accessorPositions"},{"bufferView":1,"byteOffset":12264,"componentType":5126,"count":1022,"type":"VEC3","name":"accessorNormals"},{"bufferView":2,"componentType":5126,"count":1022,"type":"VEC2","name":"accessorUVs"},{"bufferView":0,"byteOffset":4448,"componentType":5123,"count":4347,"type":"SCALAR","name":"accessorIndices"},{"bufferView":1,"byteOffset":24528,"componentType":5126,"count":1094,"max":[5.28906059,157.085236,3.50443363],"min":[-5.340834,145.17337,-10.60279],"type":"VEC3","name":"accessorPositions"},{"bufferView":1,"byteOffset":37656,"componentType":5126,"count":1094,"type":"VEC3","name":"accessorNormals"},{"bufferView":2,"byteOffset":8176,"componentType":5126,"count":1094,"type":"VEC2","name":"accessorUVs"},{"bufferView":0,"byteOffset":13144,"componentType":5123,"count":17541,"type":"SCALAR","name":"accessorIndices"},{"bufferView":1,"byteOffset":50784,"componentType":5126,"count":3520,"max":[99.28964,109.926674,9.761824],"min":[-90.53878,-62.377697,-6.733978],"type":"VEC3","name":"accessorPositions"},{"bufferView":1,"byteOffset":93024,"componentType":5126,"count":3520,"type":"VEC3","name":"accessorNormals"},{"bufferView":2,"byteOffset":16928,"componentType":5126,"count":3520,"type":"VEC2","name":"accessorUVs"}],"bufferViews":[{"buffer":0,"byteLength":48228,"name":"bufferViewScalar"},{"buffer":0,"byteOffset":48228,"byteLength":135264,"byteStride":12,"name":"bufferViewFloatVec3"},{"buffer":0,"byteOffset":183492,"byteLength":45088,"byteStride":8,"name":"bufferViewFloatVec2"}],"buffers":[{"uri":"Turbine-853ft.bin","byteLength":228580}],"materials":[{"pbrMetallicRoughness":{"baseColorTexture":{"index":0},"metallicFactor":0.0,"roughnessFactor":0.235631764},"name":"Turbine-Mat"}],"textures":[{"sampler":0,"source":0,"name":"turbine-map.jpg"}],"images":[{"uri":"Textures/turbine-map.jpg"}],"samplers":[{"magFilter":9729,"minFilter":9987}]}